<?xml version="1.0" standalone="no"?>
<!DOCTYPE svg PUBLIC "-//W3C//DTD SVG 20010904//EN"
 "http://www.w3.org/TR/2001/REC-SVG-20010904/DTD/svg10.dtd">
<svg version="1.0" xmlns="http://www.w3.org/2000/svg"
 width="512.000000pt" height="512.000000pt" viewBox="0 0 512.000000 512.000000"
 preserveAspectRatio="xMidYMid meet">
<metadata>
Created by potrace 1.11, written by Peter Selinger 2001-2013
</metadata>
<g transform="translate(0.000000,512.000000) scale(0.100000,-0.100000)"
fill="#000000" stroke="none">
<path d="M3270 4434 c-41 -7 -93 -15 -115 -19 -22 -3 -53 -8 -70 -10 -96 -17
-145 -25 -190 -30 -27 -4 -57 -8 -65 -10 -8 -3 -33 -7 -55 -10 -22 -3 -51 -8
-65 -11 -33 -6 -66 -11 -115 -19 -22 -3 -65 -10 -95 -15 -56 -9 -116 -19 -160
-25 -14 -2 -38 -6 -55 -9 -16 -3 -52 -8 -80 -12 -27 -3 -52 -7 -55 -9 -3 -2
-29 -6 -59 -10 -30 -4 -63 -9 -75 -11 -12 -2 -37 -7 -56 -10 -19 -3 -45 -7
-57 -9 -12 -2 -57 -9 -100 -15 -43 -7 -87 -14 -98 -16 -11 -3 -36 -7 -55 -10
-19 -3 -73 -11 -120 -19 -124 -20 -161 -26 -200 -31 -19 -2 -57 -9 -85 -14
-27 -5 -70 -12 -95 -15 -25 -3 -52 -8 -60 -10 -8 -3 -33 -7 -55 -10 -22 -3
-76 -11 -120 -18 l-80 -13 1 -89 c4 -372 203 -634 569 -749 69 -21 109 -31
210 -50 12 -2 48 -7 80 -11 33 -4 74 -9 90 -12 17 -2 174 -7 350 -9 176 -3
334 -10 352 -15 64 -20 87 -98 53 -175 -60 -131 -144 -315 -170 -369 -15 -33
-42 -90 -59 -127 -26 -58 -34 -67 -63 -73 -50 -11 -188 -77 -257 -125 -155
-105 -314 -316 -371 -492 -6 -21 -16 -41 -22 -44 -5 -3 -70 -6 -143 -6 -118 1
-135 -1 -139 -16 -10 -38 1 -548 14 -597 51 -201 218 -372 390 -401 50 -8
1457 -12 1470 -4 29 19 116 184 153 290 49 141 62 223 61 400 l-1 135 326 0
326 0 2 540 c1 297 2 545 2 552 1 6 20 21 44 32 80 39 144 123 170 223 14 56
15 83 3 237 -4 52 -9 117 -11 145 -5 63 -15 196 -20 256 -3 25 -7 88 -10 140
-19 291 -20 301 -65 395 -61 128 -184 231 -299 250 -19 3 -55 21 -80 39 -151
110 -333 152 -521 120z m220 -119 c44 -7 160 -47 160 -54 0 -3 -21 -17 -47
-31 -108 -57 -212 -207 -233 -335 -31 -193 -62 -394 -66 -425 -4 -29 -14 -91
-39 -239 -2 -13 -7 -45 -11 -70 -4 -25 -8 -55 -10 -66 -39 -198 -9 -320 100
-418 77 -68 109 -73 461 -80 l130 -2 0 -485 0 -485 -273 0 c-150 -1 -277 2
-283 6 -6 3 -12 12 -13 20 -1 8 -8 32 -14 54 -6 23 -11 131 -11 250 0 116 -3
221 -6 235 -3 14 -8 41 -11 60 -4 19 -20 62 -36 95 -96 196 -276 315 -481 318
l-82 2 0 -152 c0 -84 0 -153 0 -153 0 0 -15 4 -34 10 -50 14 -107 22 -184 25
-37 1 -70 5 -73 7 -2 3 15 48 39 99 24 52 51 110 59 129 9 19 37 80 63 135 92
196 100 231 70 314 -28 81 -102 145 -178 156 -23 3 -181 7 -352 9 -170 3 -319
6 -330 9 -11 3 -51 8 -90 12 -38 3 -90 11 -115 17 -25 5 -55 12 -66 14 -145
28 -330 122 -416 211 -26 28 -98 132 -98 143 0 3 54 6 120 5 l120 0 1 50 c0
27 0 102 -1 167 l-1 116 28 6 c15 3 48 8 73 12 25 3 54 8 65 10 11 3 34 6 50
8 17 3 44 7 60 10 17 2 46 7 65 10 56 8 283 46 309 51 13 2 49 7 80 11 31 3
59 8 62 10 4 2 27 6 50 9 24 3 69 10 99 15 30 5 73 12 95 15 34 5 82 13 245
40 14 2 43 7 65 10 22 3 51 8 65 10 14 3 39 7 55 9 17 3 75 12 130 21 111 18
100 17 245 39 58 9 116 18 130 21 14 3 45 8 70 11 25 3 47 8 48 9 5 4 97 -2
142 -10z m425 -183 c59 -30 114 -89 147 -158 35 -74 37 -84 43 -204 3 -52 7
-124 10 -160 3 -36 7 -96 10 -135 6 -83 15 -192 20 -255 11 -126 18 -240 18
-286 0 -92 -70 -192 -148 -212 -28 -8 -169 -7 -419 1 -119 4 -155 17 -194 68
-63 80 -67 131 -28 358 14 84 28 172 31 195 3 22 9 64 15 91 5 28 12 66 14 85
2 19 12 77 21 128 9 51 18 117 21 145 6 64 30 150 55 198 34 68 114 136 189
160 43 14 152 4 195 -19z m-2775 -260 l0 -97 -75 1 c-42 0 -80 5 -85 10 -9 9
-13 29 -25 132 -1 12 2 22 6 22 5 0 10 1 12 2 3 2 139 26 155 27 9 1 12 -25
12 -97z m1837 -1373 c85 -41 158 -116 202 -209 l36 -75 3 -245 c2 -174 7 -258
16 -290 85 -274 62 -564 -62 -803 -19 -37 -42 -71 -51 -76 -9 -4 -320 -7 -691
-6 -730 2 -716 1 -807 57 -74 45 -160 176 -178 273 -5 22 -9 69 -10 103 -2 57
0 65 19 72 82 31 113 49 153 89 53 52 90 127 99 197 21 178 149 392 314 526
210 171 497 210 754 102 32 -14 61 -23 64 -20 3 3 5 79 5 168 0 90 2 167 5
172 7 13 61 -1 129 -35z m-1387 -932 c0 -27 -54 -98 -97 -126 -25 -17 -49 -31
-53 -31 -5 0 -7 163 -1 166 0 0 35 1 76 1 47 1 75 -3 75 -10z"/>
<path d="M2687 3972 c-15 -3 -17 -18 -17 -111 l0 -107 100 0 100 0 1 38 c0 21
1 54 1 73 0 19 -1 52 -1 73 l-1 37 -83 0 c-46 0 -91 -1 -100 -3z"/>
<path d="M1969 1726 c-1 -1 -2 -42 -3 -92 l-1 -90 80 1 80 1 0 89 0 89 -78 1
c-42 1 -78 1 -78 1z"/>
<path d="M2049 1318 c-1 -2 -3 -29 -4 -60 l-3 -58 289 0 289 0 1 23 c1 12 2
38 2 57 l1 35 -287 3 c-158 1 -288 1 -288 0z"/>
<path d="M2055 1108 c-4 -29 -7 -55 -6 -58 2 -6 42 -17 86 -24 34 -6 310 -59
398 -77 34 -7 62 -8 66 -3 5 5 12 32 16 59 l6 50 -178 35 c-98 19 -185 35
-193 36 -8 1 -51 9 -95 18 -44 9 -83 16 -87 16 -3 0 -9 -24 -13 -52z"/>
</g>
</svg>
